<svg width="209" height="73" viewBox="0 0 209 73" fill="none" xmlns="http://www.w3.org/2000/svg">
<path d="M25.5545 28.5793V8.75362H13.7996L14.8858 4.01611H42.0511L43.1374 8.75362H31.3825V28.5834H25.5587L25.5545 28.5793Z" fill="#FF8A00"/>
<path d="M66.0196 28.5793L63.3514 23.9822H48.2591L45.5909 28.5793H39.2756L52.6125 5.84173L51.5262 4.01611H57.9117L72.3349 28.5834H66.0196V28.5793ZM55.8094 10.9303L50.791 19.5999H60.8277L55.8094 10.9303Z" fill="#FF8A00"/>
<path d="M76.1967 28.5793V4.01611H81.9874V23.8459H100.272L99.1862 28.5834H76.2008L76.1967 28.5793Z" fill="#FF8A00"/>
<path d="M104.485 28.5793V4.01611H129.193L130.279 8.75362H110.276V14.0529H129.086L128.033 18.5797H110.276V23.8459H130.668L129.581 28.5834H104.49L104.485 28.5793Z" fill="#FF8A00"/>
<path d="M158.391 12.2779H164.181V16.6519C164.181 24.9705 158.985 29.1091 150.32 29.1091C141.654 29.1091 136.458 24.9663 136.458 16.6519V12.2779H142.249V15.3509C142.249 21.3151 144.529 24.3013 150.32 24.3013C156.111 24.3013 158.391 21.3192 158.391 15.3509V12.2779Z" fill="#FF8A00"/>
<path d="M169.621 28.5793L170.707 23.8418H188.01C189.133 23.8418 189.587 23.2801 189.587 22.297C189.587 20.649 188.253 20.0171 185.341 19.3851L176.428 17.4563C173.198 16.7541 170.113 14.4742 170.113 9.98034C170.113 6.22585 172.252 4.01611 176.288 4.01611H193.061L194.147 8.75362H177.304C176.18 8.75362 175.726 9.38557 175.726 10.3686C175.726 11.7357 176.639 12.2272 178.427 12.6155L187.411 14.5815C189.339 15.0028 195.2 16.4402 195.2 22.6192C195.2 26.3737 193.061 28.5834 189.026 28.5834H169.617L169.621 28.5793Z" fill="#FF8A00"/>
<path d="M141.807 9.24289C143.838 9.24289 145.483 7.59708 145.483 5.56688C145.483 3.53668 143.838 1.89087 141.807 1.89087C139.777 1.89087 138.131 3.53668 138.131 5.56688C138.131 7.59708 139.777 9.24289 141.807 9.24289Z" fill="#FF8A00"/>
<path d="M158.829 9.24289C160.859 9.24289 162.505 7.59708 162.505 5.56688C162.505 3.53668 160.859 1.89087 158.829 1.89087C156.798 1.89087 155.153 3.53668 155.153 5.56688C155.153 7.59708 156.798 9.24289 158.829 9.24289Z" fill="#FF8A00"/>
<path d="M142.237 16.4067H139.759V12.2764H143.889L142.237 16.4067Z" fill="#FF8A00"/>
<path d="M161.29 16.4067H158.399L157.16 12.2764H161.29V16.4067Z" fill="#FF8A00"/>
<path d="M17.9264 56.262H18.9664V68.014H17.9264V56.262ZM15.9504 61.046H18.2124V61.93H15.9504V61.046ZM15.2614 56.522H16.2754V67.416H15.2614V56.522ZM9.5674 57.679H10.6464V64.465H9.5674V57.679ZM9.5674 64.036H10.3214C11.5304 64.036 12.8824 63.958 14.4164 63.659L14.5334 64.595C12.9344 64.907 11.5824 64.972 10.3214 64.972H9.5674V64.036ZM24.2564 56.691C26.0114 56.691 27.2984 57.757 27.2984 59.304C27.2984 60.838 26.0114 61.904 24.2564 61.904C22.5144 61.904 21.2274 60.838 21.2274 59.304C21.2274 57.757 22.5144 56.691 24.2564 56.691ZM24.2564 57.575C23.1254 57.575 22.2674 58.29 22.2674 59.304C22.2674 60.318 23.1254 61.02 24.2564 61.02C25.4004 61.02 26.2454 60.318 26.2454 59.304C26.2454 58.29 25.4004 57.575 24.2564 57.575ZM29.5084 56.262H30.6004V62.281H29.5084V56.262ZM22.9954 62.853H30.6004V65.713H24.0744V67.481H23.0214V64.907H29.5344V63.724H22.9954V62.853ZM23.0214 67H30.9904V67.858H23.0214V67ZM36.7354 57.107C38.5684 57.107 39.8814 58.238 39.8814 59.876C39.8814 61.527 38.5684 62.658 36.7354 62.658C34.9024 62.658 33.5764 61.527 33.5764 59.876C33.5764 58.238 34.9024 57.107 36.7354 57.107ZM36.7354 58.043C35.5134 58.043 34.6294 58.784 34.6294 59.876C34.6294 60.968 35.5134 61.722 36.7354 61.722C37.9444 61.722 38.8284 60.968 38.8284 59.876C38.8284 58.784 37.9444 58.043 36.7354 58.043ZM41.4154 56.249H42.4944V68.027H41.4154V56.249ZM33.1344 65.453L32.9784 64.556C35.1234 64.556 38.0874 64.543 40.6484 64.14L40.7394 64.933C38.1004 65.44 35.2274 65.453 33.1344 65.453ZM48.695 64.218H49.592C51.776 64.218 53.18 64.166 54.818 63.854L54.935 64.738C53.245 65.05 51.828 65.128 49.592 65.128H48.695V64.218ZM48.695 57.38H54.038V58.264H49.761V64.556H48.695V57.38ZM56.716 56.262H57.795V68.04H56.716V56.262ZM53.349 60.513H57.158V61.41H53.349V60.513ZM69.3256 58.381H72.3286V59.278H69.3256V58.381ZM71.8736 56.262H72.9526V62.32H71.8736V56.262ZM65.3866 62.931H72.9526V65.739H66.4786V67.52H65.4256V64.933H71.8866V63.789H65.3866V62.931ZM65.4256 67H73.3946V67.858H65.4256V67ZM66.2186 56.626H67.1026V57.731C67.1026 59.902 65.8026 61.657 63.8396 62.359L63.2806 61.501C65.0486 60.903 66.2186 59.434 66.2186 57.731V56.626ZM66.4006 56.626H67.2716V57.731C67.2716 59.265 68.4546 60.682 70.1576 61.241L69.5986 62.086C67.7006 61.41 66.4006 59.72 66.4006 57.731V56.626ZM75.6295 64.231H76.4095C77.8395 64.231 79.1655 64.179 80.7775 63.906L80.8685 64.79C79.2175 65.076 77.8915 65.128 76.4095 65.128H75.6295V64.231ZM75.6035 57.549H79.8025V61.644H76.6825V64.595H75.6295V60.773H78.7625V58.433H75.6035V57.549ZM84.1835 56.262H85.2235V68.014H84.1835V56.262ZM80.3615 60.474H82.2595V61.371H80.3615V60.474ZM81.8175 56.548H82.8185V67.403H81.8175V56.548ZM88.6415 59.785H96.6235V60.669H88.6415V59.785ZM87.1985 62.242H97.8585V63.126H87.1985V62.242ZM88.6415 56.691H89.7075V60.227H88.6415V56.691ZM88.5635 66.844H96.6885V67.728H88.5635V66.844ZM88.5635 64.296H89.6295V67.078H88.5635V64.296ZM102.382 62.996H113.042V63.88H102.382V62.996ZM107.14 63.542H108.206V68.014H107.14V63.542ZM107.686 56.73C110.143 56.73 111.794 57.731 111.794 59.304C111.794 60.877 110.143 61.878 107.686 61.878C105.242 61.878 103.578 60.877 103.578 59.304C103.578 57.731 105.242 56.73 107.686 56.73ZM107.686 57.601C105.892 57.601 104.67 58.264 104.67 59.304C104.67 60.344 105.892 61.007 107.686 61.007C109.48 61.007 110.689 60.344 110.689 59.304C110.689 58.264 109.48 57.601 107.686 57.601ZM122.908 56.249H123.987V68.027H122.908V56.249ZM115.03 64.296H116.005C117.968 64.296 119.723 64.218 121.803 63.88L121.92 64.764C119.788 65.115 118.02 65.193 116.005 65.193H115.03V64.296ZM115.004 57.354H120.438V61.553H116.109V64.634H115.03V60.669H119.346V58.238H115.004V57.354ZM126.3 61.722H136.96V62.541H126.3V61.722ZM127.561 63.49H135.621V65.999H128.666V67.377H127.6V65.258H134.568V64.257H127.561V63.49ZM127.6 67.091H135.998V67.871H127.6V67.091ZM127.652 56.6H135.582V59.044H128.744V60.318H127.678V58.316H134.529V57.367H127.652V56.6ZM127.678 60.058H135.803V60.838H127.678V60.058ZM141.978 57.315H147.373V62.762H141.978V57.315ZM146.32 58.186H143.031V61.891H146.32V58.186ZM149.531 56.249H150.61V64.868H149.531V56.249ZM150.272 59.837H152.352V60.734H150.272V59.837ZM143.291 66.87H151.143V67.754H143.291V66.87ZM143.291 64.049H144.37V67.247H143.291V64.049ZM153.456 61.163H164.077V62.047H153.456V61.163ZM154.86 59.343H162.816V60.214H154.86V59.343ZM154.86 56.639H162.686V57.523H155.926V60.045H154.86V56.639ZM154.73 63.061H162.712V65.83H155.822V67.312H154.756V65.024H161.646V63.906H154.73V63.061ZM154.756 67.026H163.063V67.884H154.756V67.026ZM168.548 57.159C170.251 57.159 171.473 58.758 171.473 61.254C171.473 63.763 170.251 65.362 168.548 65.362C166.832 65.362 165.623 63.763 165.623 61.254C165.623 58.758 166.832 57.159 168.548 57.159ZM168.548 58.134C167.417 58.134 166.65 59.356 166.65 61.254C166.65 63.165 167.417 64.413 168.548 64.413C169.679 64.413 170.446 63.165 170.446 61.254C170.446 59.356 169.679 58.134 168.548 58.134ZM174.021 56.249H175.087V68.027H174.021V56.249ZM171.122 60.734H174.489V61.618H171.122V60.734ZM185.317 56.249H186.409V68.014H185.317V56.249ZM186.11 61.02H188.281V61.917H186.11V61.02ZM182.314 57.523H183.367C183.367 60.864 181.833 63.88 178.037 65.791L177.439 64.959C180.689 63.308 182.314 60.799 182.314 57.692V57.523ZM177.985 57.523H182.873V58.407H177.985V57.523ZM191.933 62.307H192.999V65.83H191.933V62.307ZM196.275 62.307H197.354V65.83H196.275V62.307ZM189.333 65.622H199.98V66.519H189.333V65.622ZM194.637 57.003C197.12 57.003 198.901 58.186 198.901 60.032C198.901 61.865 197.12 63.048 194.637 63.048C192.141 63.048 190.36 61.865 190.36 60.032C190.36 58.186 192.141 57.003 194.637 57.003ZM194.637 57.861C192.752 57.861 191.4 58.719 191.4 60.032C191.4 61.332 192.752 62.19 194.637 62.19C196.522 62.19 197.861 61.332 197.861 60.032C197.861 58.719 196.522 57.861 194.637 57.861Z" fill="black"/>
</svg>
